<?xml version="1.0" encoding="UTF-8" standalone="no"?> <svg xmlns="http://www.w3.org/2000/svg" version="1.1" viewBox="0 0 1822 575" width="1822.0pt" height="575.0pt"><path d="M 0.00 0.00 L 1822.00 0.00 L 1822.00 575.00 L 0.00 575.00 L 0.00 0.00 Z" fill="#ffffff"></path><path d="M 176.74 176.69 C 187.85 176.69 198.95 176.70 210.06 176.69 C 245.95 228.80 281.78 280.97 317.64 333.10 C 317.79 280.97 317.66 228.83 317.71 176.69 C 329.69 176.69 341.66 176.70 353.64 176.69 C 353.67 250.50 353.65 324.32 353.65 398.13 C 342.52 398.13 331.39 398.13 320.25 398.13 C 284.37 345.89 248.35 293.72 212.55 241.42 C 212.45 293.65 212.54 345.89 212.51 398.13 C 200.59 398.13 188.66 398.13 176.74 398.13 C 176.74 324.32 176.74 250.51 176.74 176.69 Z" fill="#000e38"></path><path d="M 909.99 176.69 C 921.78 176.69 933.57 176.70 945.36 176.69 C 945.36 186.71 945.36 196.72 945.36 206.73 C 936.24 206.73 927.12 206.75 918.00 206.71 C 914.15 206.71 909.72 207.15 906.47 209.42 C 903.11 211.74 901.60 216.03 901.45 219.97 C 901.23 225.32 901.43 230.70 901.37 236.06 C 916.03 236.06 930.70 236.06 945.36 236.06 C 945.35 246.79 945.39 257.51 945.33 268.24 C 930.94 268.24 916.54 268.24 902.14 268.24 C 902.13 310.91 902.15 353.59 902.13 396.27 C 902.42 398.47 900.54 398.00 899.03 398.15 C 888.46 398.13 877.90 398.13 867.33 398.13 C 867.33 354.84 867.32 311.54 867.33 268.25 C 848.21 268.22 829.09 268.24 809.97 268.24 C 804.28 268.19 798.69 269.17 793.47 271.46 C 785.80 274.73 779.92 280.99 776.35 288.45 C 772.33 296.87 770.85 306.72 770.69 315.99 C 770.69 343.37 770.70 370.75 770.69 398.13 C 759.27 398.13 747.84 398.13 736.42 398.13 C 736.41 344.11 736.42 290.08 736.41 236.06 C 746.64 236.09 756.86 235.99 767.09 236.12 C 768.02 244.15 769.61 252.09 770.69 260.10 C 774.96 253.32 780.23 247.38 787.21 243.32 C 796.33 237.97 806.54 236.20 816.99 236.05 C 833.77 236.06 850.55 236.06 867.32 236.06 C 867.53 225.89 866.53 214.81 869.02 205.03 C 870.98 197.03 874.99 189.69 881.74 184.76 C 889.76 178.81 900.21 176.89 909.99 176.69 Z" fill="#000e38"></path><path d="M 451.01 234.30 C 468.03 233.44 485.15 236.31 500.02 244.96 C 513.24 252.55 523.54 264.67 529.21 278.79 C 534.94 293.10 536.82 309.07 534.63 324.32 C 493.89 324.33 453.15 324.29 412.40 324.34 C 412.68 332.71 413.97 340.79 417.65 348.37 C 420.87 355.09 425.82 360.93 432.13 364.93 C 439.84 369.93 448.87 372.05 458.00 371.87 C 469.07 372.01 480.68 368.61 488.65 360.63 C 493.62 355.91 496.46 349.94 498.55 343.50 C 509.96 343.56 521.37 343.48 532.79 343.54 C 530.32 356.77 524.30 369.16 514.69 378.68 C 504.67 389.04 491.30 395.51 477.24 398.28 C 469.13 400.11 460.30 399.87 451.98 399.66 C 435.13 398.74 417.77 393.13 404.59 382.37 C 393.33 373.28 385.23 360.79 380.97 347.01 C 375.97 330.97 375.43 313.47 378.55 297.01 C 381.82 280.11 389.84 264.28 402.90 252.87 C 416.11 241.12 433.49 235.11 451.01 234.30 Z" fill="#000e38"></path><path d="M 629.00 234.15 C 644.96 234.13 662.21 237.05 675.43 246.57 C 685.67 253.77 692.25 264.87 694.84 277.02 C 696.54 284.30 696.53 291.57 696.54 299.00 C 696.52 318.67 696.55 338.34 696.52 358.01 C 696.56 361.36 696.96 364.96 700.14 366.81 C 703.98 368.89 709.56 368.16 713.82 368.26 C 713.83 378.22 713.82 388.18 713.82 398.13 C 704.66 398.02 695.00 398.55 685.99 397.31 C 679.93 396.25 673.99 393.74 670.29 388.61 C 666.84 383.83 666.35 378.47 665.68 372.81 C 658.29 383.91 647.78 392.68 634.94 396.67 C 624.05 400.35 613.28 400.09 601.96 399.43 C 589.97 398.12 577.79 394.41 568.26 386.78 C 559.10 379.61 553.50 368.62 552.60 357.06 C 551.96 348.01 553.00 339.02 556.70 330.67 C 560.42 322.25 566.95 315.49 574.82 310.81 C 587.84 303.23 603.15 300.99 617.98 300.55 C 632.83 300.50 647.69 300.55 662.54 300.53 C 662.51 296.03 662.71 291.45 662.27 286.96 C 661.47 279.87 658.04 273.03 652.17 268.81 C 645.14 263.49 635.62 261.84 627.00 261.71 C 617.45 261.89 606.96 264.13 599.53 270.51 C 594.81 274.42 592.14 279.66 590.69 285.54 C 579.52 285.54 568.34 285.54 557.17 285.53 C 558.53 271.18 565.73 257.92 577.20 249.15 C 591.74 237.95 610.98 234.03 629.00 234.15 Z" fill="#000e38"></path><path d="M 1017.56 235.09 C 1039.46 232.26 1062.30 235.55 1080.84 248.14 C 1094.00 257.01 1103.90 270.17 1109.14 285.13 C 1114.89 301.35 1115.76 319.37 1112.63 336.23 C 1109.44 353.14 1101.28 368.87 1088.29 380.29 C 1075.04 392.01 1057.96 398.26 1040.44 399.59 C 1030.42 399.94 1020.85 400.16 1011.04 397.83 C 995.36 394.60 980.78 386.91 969.93 375.05 C 957.33 361.42 950.74 343.35 949.45 325.00 C 949.17 316.00 948.98 307.40 950.83 298.55 C 953.77 282.27 961.42 266.92 973.50 255.51 C 985.60 244.07 1001.16 237.37 1017.56 235.09 Z" fill="#000e38"></path><path d="M 1357.77 241.38 C 1366.70 246.38 1373.28 254.18 1377.76 263.28 C 1386.16 248.93 1400.25 239.12 1416.51 235.79 C 1430.00 233.11 1444.79 233.45 1457.77 238.31 C 1468.47 242.33 1477.54 249.79 1483.36 259.64 C 1491.21 272.61 1493.92 289.03 1493.76 304.00 C 1493.79 335.37 1493.77 366.75 1493.77 398.13 C 1482.36 398.13 1470.95 398.13 1459.54 398.13 C 1459.54 367.74 1459.54 337.36 1459.54 306.98 C 1459.45 297.74 1458.39 288.18 1454.16 279.84 C 1451.22 274.02 1446.53 269.19 1440.51 266.58 C 1431.07 262.53 1420.09 262.73 1410.64 266.65 C 1403.04 269.88 1397.06 275.94 1393.36 283.27 C 1389.15 291.63 1387.71 300.71 1387.63 310.00 C 1387.66 339.38 1387.64 368.75 1387.65 398.13 C 1376.02 397.98 1364.35 398.45 1352.74 397.87 C 1352.85 366.90 1352.76 335.94 1352.79 304.97 C 1352.90 295.96 1351.26 286.08 1346.69 278.20 C 1343.57 272.72 1338.69 268.42 1332.81 266.13 C 1324.95 263.19 1316.27 262.78 1308.22 265.21 C 1299.00 267.77 1291.46 274.73 1287.17 283.16 C 1282.97 291.35 1281.09 300.83 1281.20 310.00 C 1281.22 339.28 1281.14 368.57 1281.24 397.86 C 1269.75 398.46 1258.19 397.98 1246.68 398.13 C 1246.68 344.11 1246.68 290.08 1246.68 236.06 C 1256.64 236.05 1266.60 236.07 1276.56 236.05 C 1277.98 242.98 1279.05 249.97 1280.42 256.90 C 1288.38 246.57 1299.21 238.96 1312.01 236.00 C 1326.94 232.55 1344.27 233.68 1357.77 241.38 Z" fill="#000e38"></path><path d="M 1136.37 236.06 C 1146.59 236.11 1156.82 235.95 1167.04 236.16 C 1168.13 244.17 1169.44 252.15 1170.72 260.14 C 1175.82 251.54 1183.23 244.49 1192.52 240.62 C 1203.43 236.02 1214.57 235.77 1226.22 236.16 C 1226.20 245.10 1226.18 254.05 1226.25 263.00 C 1226.27 264.80 1225.84 266.52 1225.71 268.32 C 1215.70 268.47 1204.30 267.02 1195.01 270.83 C 1186.86 273.80 1180.49 280.09 1176.65 287.77 C 1172.30 296.44 1170.84 306.39 1170.72 316.00 C 1170.75 343.37 1170.73 370.75 1170.73 398.13 C 1159.28 398.13 1147.82 398.13 1136.37 398.13 C 1136.37 344.11 1136.37 290.08 1136.37 236.06 Z" fill="#000e38"></path><path d="M 465.01 262.42 C 474.01 263.74 482.49 267.55 488.83 274.18 C 495.42 281.09 498.82 289.95 499.94 299.34 C 471.29 299.38 442.64 299.36 413.99 299.35 C 414.64 290.53 418.46 281.95 424.47 275.48 C 434.42 264.42 450.57 259.90 465.01 262.42 Z" fill="#ffffff"></path><path d="M 1023.53 264.02 C 1035.01 262.26 1046.88 264.07 1056.77 270.33 C 1065.82 275.95 1072.33 284.97 1075.81 294.94 C 1079.47 305.46 1080.29 317.04 1078.58 328.02 C 1076.68 340.84 1070.66 353.19 1060.32 361.27 C 1047.92 371.11 1029.94 373.16 1015.23 367.87 C 1004.14 363.92 995.32 355.31 990.32 344.75 C 984.82 333.25 983.56 320.36 984.99 307.81 C 986.59 295.86 991.12 284.38 999.90 275.89 C 1006.29 269.45 1014.64 265.57 1023.53 264.02 Z" fill="#ffffff"></path><path d="M 621.99 325.80 C 635.49 325.73 649.00 325.81 662.51 325.77 C 662.88 335.64 661.76 345.14 656.70 353.80 C 651.75 362.32 643.47 368.15 634.11 370.93 C 623.82 373.77 613.14 374.44 602.91 370.89 C 596.24 368.45 590.59 363.77 588.41 356.82 C 585.90 348.36 587.98 337.80 595.41 332.38 C 603.04 326.51 612.78 326.24 621.99 325.80 Z" fill="#ffffff"></path><path d="M 1512.20 397.86 C 1556.55 397.85 1600.89 397.85 1645.24 397.86 C 1645.29 408.75 1645.25 419.64 1645.26 430.53 C 1600.89 430.57 1556.52 430.54 1512.15 430.55 C 1512.16 419.65 1512.08 408.75 1512.20 397.86 Z" fill="#00e5a4"></path></svg> 